<?xml version="1.0" ?>

<!-- Uploaded to: SVG Repo, www.svgrepo.com, Generator: SVG Repo Mixer Tools -->
<svg width="800px" height="800px" viewBox="0 0 32 32" xmlns="http://www.w3.org/2000/svg">

<defs>

<style>.cls-1{fill:#005792;}</style>

</defs>

<title/>

<g id="Cart">

<path class="cls-1" d="M28.11,13.25l-2,9.75-.16.75A1.81,1.81,0,0,1,24.05,25H10V24s-1.55-1-1-1H22.71a1,1,0,0,0,1-.78L26.16,11.5h.09C27.42,11.5,28.31,12.33,28.11,13.25Z"/>

<path d="M24.05,25.6H11.2a2.41,2.41,0,0,1-2.45-1.73L6,10.9H26.25a2.64,2.64,0,0,1,2.06.91,1.85,1.85,0,0,1,.39,1.57l-2.2,10.5A2.41,2.41,0,0,1,24.05,25.6ZM7.51,12.1,9.93,23.63a1.25,1.25,0,0,0,1.27.77H24.05a1.25,1.25,0,0,0,1.27-.77l2.2-10.51a.6.6,0,0,0-.14-.55,1.48,1.48,0,0,0-1.13-.47Z"/>

<path d="M6.77,12.1a.6.6,0,0,1-.56-.39L5.42,9.6H3A.6.6,0,0,1,3,8.4H5.83a.59.59,0,0,1,.56.39l1,2.5a.6.6,0,0,1-.35.77A.57.57,0,0,1,6.77,12.1Z"/>

<path d="M10.5,29.1a1.6,1.6,0,1,1,1.6-1.6A1.6,1.6,0,0,1,10.5,29.1Zm0-2a.4.4,0,1,0,.4.4A.4.4,0,0,0,10.5,27.1Z"/>

<path d="M24.5,29.1a1.6,1.6,0,1,1,1.6-1.6,1.67,1.67,0,0,1-.22.81A1.61,1.61,0,0,1,24.5,29.1Zm0-2a.4.4,0,0,0-.4.4.41.41,0,0,0,0,.19.4.4,0,0,0,.69,0,.39.39,0,0,0,.06-.2A.4.4,0,0,0,24.5,27.1Z"/>

</g>

</svg>