<?xml version="1.0" ?>

<!-- Uploaded to: SVG Repo, www.svgrepo.com, Generator: SVG Repo Mixer Tools -->
<svg width="800px" height="800px" viewBox="0 0 32 32" xmlns="http://www.w3.org/2000/svg">

<defs>

<style>.cls-1{fill:#005792;}</style>

</defs>

<title/>

<g id="Photo">

<path class="cls-1" d="M28.5,6.5v19A2,2,0,0,1,27,27.43a1.68,1.68,0,0,1-.5.07H5.5a2,2,0,0,1-2-2V25H25a2,2,0,0,0,2-2V4.57A2,2,0,0,1,28.5,6.5Z"/>

<polygon class="cls-1" points="28.5 21.5 26.76 21.5 18.47 11.92 19.5 10.5 28.5 21.5"/>

<path class="cls-1" d="M28.5,25.25v.25A2,2,0,0,1,27,27.43a1.68,1.68,0,0,1-.5.07h-.25a2.32,2.32,0,0,0,.75-.13A2.25,2.25,0,0,0,28.5,25.25Z"/>

<path d="M26.5,28.1H5.5a2.61,2.61,0,0,1-2.6-2.6V6.5A2.61,2.61,0,0,1,5.5,3.9h21a2.07,2.07,0,0,1,.68.1A2.58,2.58,0,0,1,29.1,6.5v19a2.59,2.59,0,0,1-2,2.51A2,2,0,0,1,26.5,28.1Zm-21-23A1.4,1.4,0,0,0,4.1,6.5v19a1.4,1.4,0,0,0,1.4,1.4h21a1,1,0,0,0,.32,0A1.4,1.4,0,0,0,27.9,25.5V6.5a1.39,1.39,0,0,0-1-1.35,1.06,1.06,0,0,0-.35-.05Z"/>

<rect height="1" width="25" x="3.5" y="21"/>

<path d="M8,11.1A2.1,2.1,0,1,1,10.1,9,2.1,2.1,0,0,1,8,11.1Zm0-3a.9.9,0,1,0,.9.9A.9.9,0,0,0,8,8.1Z"/>

<path d="M28.5,22.1H19.77a.59.59,0,0,1-.42-.17l-4.85-4.7a.61.61,0,0,1-.07-.78L19,10.15a.63.63,0,0,1,.47-.25.59.59,0,0,1,.48.22l9,11a.6.6,0,0,1-.46,1ZM20,20.9h7.22l-7.7-9.42-3.82,5.25Z"/>

<path d="M19.77,22.1H3.5A.6.6,0,0,1,3,21.73a.57.57,0,0,1,.13-.65l8-8a.59.59,0,0,1,.84,0l8.27,8a.6.6,0,0,1-.42,1ZM5,20.9H18.29l-6.78-6.56Z"/>

</g>

</svg>